<svg width="14" height="13" viewBox="0 0 14 13" fill="none" xmlns="http://www.w3.org/2000/svg">
<path d="M10.7043 1.78074H3.70282C3.57018 1.78074 3.44298 1.72805 3.34919 1.63426C3.2554 1.54047 3.20271 1.41326 3.20271 1.28063C3.20271 1.14799 3.2554 1.02078 3.34919 0.926996C3.44298 0.833208 3.57018 0.780518 3.70282 0.780518H10.7043C10.837 0.780518 10.9642 0.833208 11.058 0.926996C11.1518 1.02078 11.2045 1.14799 11.2045 1.28063C11.2045 1.41326 11.1518 1.54047 11.058 1.63426C10.9642 1.72805 10.837 1.78074 10.7043 1.78074Z" fill="white"/>
<path d="M11.7045 3.28108H2.70257C2.56994 3.28108 2.44273 3.22839 2.34894 3.1346C2.25515 3.04082 2.20246 2.91361 2.20246 2.78097C2.20246 2.64834 2.25515 2.52113 2.34894 2.42734C2.44273 2.33355 2.56994 2.28086 2.70257 2.28086H11.7045C11.8372 2.28086 11.9644 2.33355 12.0582 2.42734C12.152 2.52113 12.2046 2.64834 12.2046 2.78097C12.2046 2.91361 12.152 3.04082 12.0582 3.1346C11.9644 3.22839 11.8372 3.28108 11.7045 3.28108Z" fill="white"/>
<path d="M12.3025 12.7832H2.10464C1.7328 12.7828 1.37631 12.6349 1.11339 12.3719C0.850457 12.109 0.702562 11.7525 0.702148 11.3807V5.1837C0.702562 4.81187 0.850457 4.45538 1.11339 4.19245C1.37631 3.92952 1.7328 3.78162 2.10464 3.78121H12.3025C12.6743 3.78162 13.0308 3.92952 13.2937 4.19245C13.5567 4.45538 13.7046 4.81187 13.705 5.1837V11.3807C13.7046 11.7525 13.5567 12.109 13.2937 12.3719C13.0308 12.6349 12.6743 12.7828 12.3025 12.7832Z" fill="white"/>
</svg>
