<svg width="30" height="30" viewBox="0 0 30 30" fill="none" xmlns="http://www.w3.org/2000/svg">
<path d="M21.5611 5.625H8.4361C8.18746 5.625 7.949 5.52623 7.77319 5.35041C7.59737 5.1746 7.4986 4.93614 7.4986 4.6875C7.4986 4.43886 7.59737 4.2004 7.77319 4.02459C7.949 3.84877 8.18746 3.75 8.4361 3.75H21.5611C21.8097 3.75 22.0482 3.84877 22.224 4.02459C22.3998 4.2004 22.4986 4.43886 22.4986 4.6875C22.4986 4.93614 22.3998 5.1746 22.224 5.35041C22.0482 5.52623 21.8097 5.625 21.5611 5.625Z" fill="#F2F2F2"/>
<path d="M23.436 8.43754H6.56105C6.31241 8.43754 6.07395 8.33877 5.89813 8.16295C5.72232 7.98714 5.62355 7.74868 5.62355 7.50004C5.62355 7.2514 5.72232 7.01294 5.89813 6.83713C6.07395 6.66131 6.31241 6.56254 6.56105 6.56254H23.436C23.6847 6.56254 23.9231 6.66131 24.099 6.83713C24.2748 7.01294 24.3735 7.2514 24.3735 7.50004C24.3735 7.74868 24.2748 7.98714 24.099 8.16295C23.9231 8.33877 23.6847 8.43754 23.436 8.43754Z" fill="#F2F2F2"/>
<path d="M24.557 26.2501H5.44017C4.74312 26.2493 4.07485 25.9721 3.58197 25.4792C3.08908 24.9863 2.81184 24.318 2.81107 23.621V12.0042C2.81184 11.3071 3.08908 10.6389 3.58197 10.146C4.07485 9.65309 4.74312 9.37585 5.44017 9.37508H24.557C25.254 9.37585 25.9223 9.65309 26.4152 10.146C26.9081 10.6389 27.1853 11.3071 27.1861 12.0042V23.621C27.1853 24.318 26.9081 24.9863 26.4152 25.4792C25.9223 25.9721 25.254 26.2493 24.557 26.2501Z" fill="#F2F2F2"/>
</svg>
