<svg width="10" height="10" viewBox="0 0 10 10" fill="none" xmlns="http://www.w3.org/2000/svg">
<path d="M6.22934 5.22292L9.19874 2.25352C9.33967 2.11284 9.41894 1.92194 9.41911 1.72282C9.41929 1.52369 9.34036 1.33265 9.19968 1.19172C9.059 1.0508 8.8681 0.971527 8.66897 0.971351C8.46985 0.971175 8.27881 1.05011 8.13788 1.19079L5.16849 4.16018L2.19909 1.19079C2.05816 1.04986 1.86703 0.970688 1.66772 0.970688C1.46842 0.970688 1.27729 1.04986 1.13636 1.19079C0.995432 1.33171 0.91626 1.52285 0.91626 1.72215C0.91626 1.92145 0.995432 2.11259 1.13636 2.25352L4.10576 5.22292L1.13636 8.19231C0.995432 8.33324 0.91626 8.52438 0.91626 8.72368C0.91626 8.92298 0.995432 9.11412 1.13636 9.25504C1.27729 9.39597 1.46842 9.47514 1.66772 9.47514C1.86703 9.47514 2.05816 9.39597 2.19909 9.25504L5.16849 6.28565L8.13788 9.25504C8.27881 9.39597 8.46995 9.47514 8.66925 9.47514C8.86855 9.47514 9.05969 9.39597 9.20062 9.25504C9.34154 9.11412 9.42071 8.92298 9.42071 8.72368C9.42071 8.52438 9.34154 8.33324 9.20062 8.19231L6.22934 5.22292Z" fill="white"/>
</svg>
