<svg width="20" height="20" viewBox="0 0 20 20" fill="none" xmlns="http://www.w3.org/2000/svg">
<path d="M15.898 5H7.22608C5.99638 5 4.99951 5.99687 4.99951 7.22656V15.8984C4.99951 17.1281 5.99638 18.125 7.22608 18.125H15.898C17.1277 18.125 18.1245 17.1281 18.1245 15.8984V7.22656C18.1245 5.99687 17.1277 5 15.898 5Z" stroke="#F2F2F2" stroke-width="1.00189" stroke-linejoin="round"/>
<path d="M14.9797 5L14.9993 4.0625C14.9976 3.48285 14.7666 2.9274 14.3567 2.51753C13.9469 2.10765 13.3914 1.87665 12.8118 1.875H4.37427C3.71183 1.87696 3.07708 2.14098 2.60866 2.6094C2.14025 3.07781 1.87623 3.71256 1.87427 4.375V12.8125C1.87592 13.3922 2.10691 13.9476 2.51679 14.3575C2.92667 14.7674 3.48211 14.9984 4.06177 15H4.99927" stroke="#F2F2F2" stroke-width="1.00189" stroke-linecap="round" stroke-linejoin="round"/>
</svg>
