<svg width="30" height="30" viewBox="0 0 30 30" fill="none" xmlns="http://www.w3.org/2000/svg">
<path d="M25.0778 13.125H16.8747C16.1287 13.125 15.4134 12.8287 14.8859 12.3012C14.3585 11.7738 14.0622 11.0584 14.0622 10.3125V2.10938C14.0622 2.04721 14.0375 1.9876 13.9935 1.94365C13.9496 1.89969 13.89 1.875 13.8278 1.875H8.43717C7.4426 1.875 6.48878 2.27009 5.78551 2.97335C5.08225 3.67661 4.68716 4.63044 4.68716 5.625V24.375C4.68716 25.3696 5.08225 26.3234 5.78551 27.0266C6.48878 27.7299 7.4426 28.125 8.43717 28.125H21.5622C22.5567 28.125 23.5106 27.7299 24.2138 27.0266C24.9171 26.3234 25.3122 25.3696 25.3122 24.375V13.3594C25.3122 13.2972 25.2875 13.2376 25.2435 13.1936C25.1996 13.1497 25.14 13.125 25.0778 13.125ZM19.6872 22.5H10.3122C10.0635 22.5 9.82507 22.4012 9.64925 22.2254C9.47344 22.0496 9.37467 21.8111 9.37467 21.5625C9.37467 21.3139 9.47344 21.0754 9.64925 20.8996C9.82507 20.7238 10.0635 20.625 10.3122 20.625H19.6872C19.9358 20.625 20.1743 20.7238 20.3501 20.8996C20.5259 21.0754 20.6247 21.3139 20.6247 21.5625C20.6247 21.8111 20.5259 22.0496 20.3501 22.2254C20.1743 22.4012 19.9358 22.5 19.6872 22.5ZM19.6872 17.8125H10.3122C10.0635 17.8125 9.82507 17.7137 9.64925 17.5379C9.47344 17.3621 9.37467 17.1236 9.37467 16.875C9.37467 16.6264 9.47344 16.3879 9.64925 16.2121C9.82507 16.0363 10.0635 15.9375 10.3122 15.9375H19.6872C19.9358 15.9375 20.1743 16.0363 20.3501 16.2121C20.5259 16.3879 20.6247 16.6264 20.6247 16.875C20.6247 17.1236 20.5259 17.3621 20.3501 17.5379C20.1743 17.7137 19.9358 17.8125 19.6872 17.8125Z" fill="#F2F2F2"/>
<path d="M24.565 11.0505L16.1374 2.62295C16.1211 2.60666 16.1002 2.59557 16.0775 2.59109C16.0549 2.58661 16.0314 2.58893 16.01 2.59776C15.9887 2.60659 15.9704 2.62154 15.9575 2.64072C15.9446 2.65991 15.9377 2.68247 15.9376 2.70558V10.3127C15.9376 10.5614 16.0364 10.7999 16.2122 10.9757C16.3881 11.1516 16.6266 11.2504 16.8752 11.2504H24.4824C24.5055 11.2503 24.5281 11.2433 24.5472 11.2304C24.5664 11.2176 24.5814 11.1993 24.5902 11.1779C24.599 11.1566 24.6014 11.1331 24.5969 11.1104C24.5924 11.0878 24.5813 11.0669 24.565 11.0505Z" fill="#F2F2F2"/>
</svg>
