<svg width="13" height="3" viewBox="0 0 13 3" fill="none" xmlns="http://www.w3.org/2000/svg">
<path d="M1.50143 3.00286C2.33065 3.00286 3.00286 2.33065 3.00286 1.50143C3.00286 0.672213 2.33065 0 1.50143 0C0.672213 0 0 0.672213 0 1.50143C0 2.33065 0.672213 3.00286 1.50143 3.00286Z" fill="#F2F2F2"/>
<path d="M6.50143 3.00286C7.33065 3.00286 8.00286 2.33065 8.00286 1.50143C8.00286 0.672213 7.33065 0 6.50143 0C5.67221 0 5 0.672213 5 1.50143C5 2.33065 5.67221 3.00286 6.50143 3.00286Z" fill="#F2F2F2"/>
<path d="M11.5014 3.00286C12.3306 3.00286 13.0029 2.33065 13.0029 1.50143C13.0029 0.672213 12.3306 0 11.5014 0C10.6722 0 10 0.672213 10 1.50143C10 2.33065 10.6722 3.00286 11.5014 3.00286Z" fill="#F2F2F2"/>
</svg>
