<svg width="16" height="16" viewBox="0 0 16 16" fill="none" xmlns="http://www.w3.org/2000/svg">
<path d="M10.5026 5.50098H11.7529C12.0845 5.50098 12.4025 5.6327 12.637 5.86717C12.8714 6.10164 13.0032 6.41966 13.0032 6.75125V13.2527C13.0032 13.5843 12.8714 13.9023 12.637 14.1367C12.4025 14.3712 12.0845 14.5029 11.7529 14.5029H4.25125C3.91966 14.5029 3.60164 14.3712 3.36717 14.1367C3.1327 13.9023 3.00098 13.5843 3.00098 13.2527V6.75125C3.00098 6.41966 3.1327 6.10164 3.36717 5.86717C3.60164 5.6327 3.91966 5.50098 4.25125 5.50098H5.50152" stroke="#F2F2F2" stroke-width="1.00189" stroke-linecap="round" stroke-linejoin="round"/>
<path d="M5.50024 8.50195L8.00115 11.0029L10.502 8.50195" stroke="#F2F2F2" stroke-width="1.00189" stroke-linecap="round" stroke-linejoin="round"/>
<path d="M8.00146 1.5V10.502" stroke="#F2F2F2" stroke-width="1.00189" stroke-linecap="round" stroke-linejoin="round"/>
</svg>
