<svg width="30" height="30" viewBox="0 0 30 30" fill="none" xmlns="http://www.w3.org/2000/svg">
<path d="M23.9084 6.5625H10.7834C9.66457 6.5625 8.59151 7.00697 7.80034 7.79814C7.00917 8.58931 6.5647 9.66237 6.5647 10.7813V23.9063C6.5647 25.0251 7.00917 26.0982 7.80034 26.8894C8.59151 27.6805 9.66457 28.125 10.7834 28.125H23.9084C25.0273 28.125 26.1004 27.6805 26.8916 26.8894C27.6827 26.0982 28.1272 25.0251 28.1272 23.9063V10.7813C28.1272 9.66237 27.6827 8.58931 26.8916 7.79814C26.1004 7.00697 25.0273 6.5625 23.9084 6.5625ZM22.0071 18.2813H18.2834V22.0049C18.2834 22.5094 17.8956 22.9424 17.3911 22.9676C17.2643 22.9737 17.1376 22.954 17.0187 22.9097C16.8998 22.8654 16.7911 22.7974 16.6992 22.7099C16.6073 22.6223 16.5342 22.517 16.4842 22.4004C16.4342 22.2837 16.4085 22.1582 16.4084 22.0313V18.2813H12.6848C12.1803 18.2813 11.7473 17.8934 11.7221 17.3889C11.716 17.2621 11.7357 17.1354 11.78 17.0165C11.8243 16.8976 11.8923 16.7889 11.9798 16.697C12.0674 16.6051 12.1727 16.532 12.2893 16.482C12.406 16.432 12.5315 16.4063 12.6584 16.4063H16.4084V12.6826C16.4084 12.1781 16.7963 11.7451 17.3008 11.7199C17.4276 11.7138 17.5543 11.7335 17.6732 11.7778C17.7921 11.8221 17.9008 11.8901 17.9927 11.9776C18.0846 12.0652 18.1577 12.1705 18.2077 12.2871C18.2577 12.4038 18.2834 12.5293 18.2834 12.6563V16.4063H22.0334C22.1605 16.4061 22.2862 16.4318 22.4029 16.4817C22.5197 16.5316 22.6252 16.6047 22.7128 16.6966C22.8005 16.7885 22.8686 16.8972 22.913 17.0162C22.9573 17.1352 22.9771 17.262 22.9709 17.3889C22.9463 17.8934 22.5116 18.2813 22.0071 18.2813Z" fill="white"/>
<path d="M23.1984 4.6875C22.9067 3.86557 22.3679 3.15403 21.6558 2.65048C20.9437 2.14693 20.0932 1.87605 19.2211 1.875H6.09607C4.97719 1.875 3.90413 2.31947 3.11296 3.11064C2.32179 3.90181 1.87732 4.97487 1.87732 6.09375V19.2187C1.87837 20.0909 2.14925 20.9414 2.6528 21.6535C3.15635 22.3656 3.86789 22.9044 4.68982 23.1961V9.375C4.68982 8.1318 5.18368 6.93951 6.06276 6.06044C6.94183 5.18136 8.13412 4.6875 9.37732 4.6875H23.1984Z" fill="white"/>
</svg>
