<svg width="15" height="12" viewBox="0 0 15 12" fill="none" xmlns="http://www.w3.org/2000/svg">
<path d="M4.69482 3.79882V2.54855C4.69482 2.21696 4.82655 1.89895 5.06102 1.66448C5.29549 1.43 5.6135 1.29828 5.9451 1.29828H12.4465C12.7781 1.29828 13.0961 1.43 13.3306 1.66448C13.5651 1.89895 13.6968 2.21696 13.6968 2.54855V10.0502C13.6968 10.3818 13.5651 10.6998 13.3306 10.9343C13.0961 11.1687 12.7781 11.3005 12.4465 11.3005H5.9451C5.6135 11.3005 5.29549 11.1687 5.06102 10.9343C4.82655 10.6998 4.69482 10.3818 4.69482 10.0502V8.79991" stroke="#CE3737" stroke-width="1.00189" stroke-linecap="round" stroke-linejoin="round"/>
<path d="M7.69629 8.80051L10.1972 6.29961L7.69629 3.79871" stroke="#CE3737" stroke-width="1.00189" stroke-linecap="round" stroke-linejoin="round"/>
<path d="M0.694336 6.29942H9.6963" stroke="#CE3737" stroke-width="1.00189" stroke-linecap="round" stroke-linejoin="round"/>
</svg>
