<svg width="33" height="33" viewBox="0 0 33 33" fill="none" xmlns="http://www.w3.org/2000/svg">
<path d="M11.3424 11.3438V8.76563C11.3424 8.08186 11.614 7.42611 12.0975 6.94262C12.581 6.45912 13.2368 6.1875 13.9205 6.1875H27.3268C28.0105 6.1875 28.6663 6.45912 29.1498 6.94262C29.6333 7.42611 29.9049 8.08186 29.9049 8.76563V24.2344C29.9049 24.9181 29.6333 25.5739 29.1498 26.0574C28.6663 26.5409 28.0105 26.8125 27.3268 26.8125H13.9205C13.2368 26.8125 12.581 26.5409 12.0975 26.0574C11.614 25.5739 11.3424 24.9181 11.3424 24.2344V21.6563" stroke="#CE3737" stroke-width="2" stroke-linecap="round" stroke-linejoin="round"/>
<path d="M17.5316 21.6577L22.6886 16.5007L17.5316 11.3438" stroke="#CE3737" stroke-width="2" stroke-linecap="round" stroke-linejoin="round"/>
<path d="M3.09323 16.5H21.6557" stroke="#CE3737" stroke-width="2" stroke-linecap="round" stroke-linejoin="round"/>
</svg>
