<svg width="25" height="25" viewBox="0 0 25 25" fill="none" xmlns="http://www.w3.org/2000/svg">
<path d="M23.4207 13.1211L21.8582 5.7085C21.5564 4.09131 20.3943 3.12598 18.7498 3.12598H6.24976C5.42945 3.12598 4.73609 3.35498 4.1941 3.80664C3.6521 4.2583 3.29712 4.896 3.14038 5.70557L1.57788 13.1211C1.56733 13.1742 1.56209 13.2281 1.56226 13.2822V18.751C1.56226 19.5798 1.8915 20.3746 2.47755 20.9607C3.0636 21.5467 3.85846 21.876 4.68726 21.876H20.3123C21.1411 21.876 21.9359 21.5467 22.522 20.9607C23.108 20.3746 23.4373 19.5798 23.4373 18.751V13.2822C23.4371 13.2281 23.4315 13.1741 23.4207 13.1211ZM4.67066 6.02148C4.67066 6.0166 4.67066 6.01221 4.67066 6.00781C4.844 5.10791 5.34497 4.68945 6.24732 4.68945H18.7498C19.6584 4.68945 20.1594 5.10693 20.3254 6.00342C20.3254 6.00977 20.3279 6.01611 20.3289 6.02246L21.6438 12.2666C21.6498 12.2951 21.6493 12.3245 21.6424 12.3527C21.6356 12.381 21.6225 12.4073 21.6042 12.4299C21.5858 12.4524 21.5627 12.4706 21.5364 12.4831C21.5102 12.4955 21.4815 12.502 21.4524 12.502H15.6248C15.4188 12.5009 15.2208 12.5817 15.0743 12.7265C14.9278 12.8714 14.8448 13.0684 14.8435 13.2744C14.8435 13.896 14.5966 14.4922 14.157 14.9317C13.7175 15.3712 13.1214 15.6182 12.4998 15.6182C11.8782 15.6182 11.282 15.3712 10.8425 14.9317C10.4029 14.4922 10.156 13.896 10.156 13.2744C10.1555 13.1723 10.1349 13.0713 10.0953 12.9772C10.0558 12.8831 9.99812 12.7977 9.92557 12.7259C9.85302 12.6541 9.76704 12.5972 9.67253 12.5587C9.57802 12.5201 9.47684 12.5005 9.37476 12.501H3.54712C3.51806 12.501 3.48935 12.4946 3.46309 12.4821C3.43684 12.4696 3.41369 12.4514 3.39535 12.4289C3.37701 12.4063 3.36394 12.38 3.35708 12.3517C3.35022 12.3235 3.34976 12.2941 3.35572 12.2656L4.67066 6.02148Z" fill="#F2F2F2"/>
<path d="M17.9697 7.81348H7.03223C6.82503 7.81348 6.62631 7.73117 6.4798 7.58465C6.33329 7.43814 6.25098 7.23943 6.25098 7.03223C6.25098 6.82503 6.33329 6.62631 6.4798 6.4798C6.62631 6.33329 6.82503 6.25098 7.03223 6.25098H17.9697C18.1769 6.25098 18.3756 6.33329 18.5222 6.4798C18.6687 6.62631 18.751 6.82503 18.751 7.03223C18.751 7.23943 18.6687 7.43814 18.5222 7.58465C18.3756 7.73117 18.1769 7.81348 17.9697 7.81348Z" fill="#F2F2F2"/>
<path d="M18.7515 10.9385H6.25146C6.04426 10.9385 5.84555 10.8562 5.69904 10.7097C5.55253 10.5631 5.47021 10.3644 5.47021 10.1572C5.47021 9.95003 5.55253 9.75131 5.69904 9.6048C5.84555 9.45829 6.04426 9.37598 6.25146 9.37598H18.7515C18.9587 9.37598 19.1574 9.45829 19.3039 9.6048C19.4504 9.75131 19.5327 9.95003 19.5327 10.1572C19.5327 10.3644 19.4504 10.5631 19.3039 10.7097C19.1574 10.8562 18.9587 10.9385 18.7515 10.9385Z" fill="#F2F2F2"/>
</svg>
