<svg width="30" height="30" viewBox="0 0 30 30" fill="none" xmlns="http://www.w3.org/2000/svg">
<path d="M26.384 6.5625H8.32013C6.32794 6.5625 4.68732 8.17441 4.68732 10.1561V24.5314C4.68732 26.5131 6.32794 28.125 8.32013 28.125H26.367C28.3592 28.125 29.9998 26.591 29.9998 24.6094V10.1561C29.9998 8.17441 28.378 6.5625 26.384 6.5625ZM21.8635 10.1566C22.3959 10.1599 22.9154 10.3207 23.3564 10.6188C23.7975 10.917 24.1404 11.339 24.3419 11.8318C24.5434 12.3246 24.5944 12.866 24.4886 13.3878C24.3828 13.9095 24.1248 14.3882 23.7472 14.7636C23.3696 15.1389 22.8893 15.3939 22.3669 15.4966C21.8445 15.5993 21.3034 15.545 20.8119 15.3405C20.3203 15.136 19.9003 14.7905 19.6049 14.3477C19.3095 13.9048 19.1518 13.3843 19.1518 12.852C19.1546 12.1351 19.4417 11.4486 19.9501 10.9432C20.4585 10.4377 21.1466 10.1547 21.8635 10.1561V10.1566ZM8.29611 26.3285C7.30001 26.3285 6.5465 25.5229 6.5465 24.532V20.7334L11.8469 15.9996C12.3651 15.5438 13.0368 15.3014 13.7266 15.3213C14.4164 15.3412 15.073 15.6219 15.5641 16.1068L19.2344 19.7461L12.6133 26.3279L8.29611 26.3285ZM28.1248 24.5314C28.1247 24.7676 28.0781 25.0014 27.9876 25.2195C27.8971 25.4376 27.7646 25.6358 27.5974 25.8026C27.4303 25.9695 27.232 26.1017 27.0137 26.1919C26.7954 26.282 26.5616 26.3282 26.3254 26.3279H15.1756L22.0358 19.5117C22.5226 19.101 23.1385 18.875 23.7755 18.8733C24.4124 18.8716 25.0295 19.0943 25.5186 19.5023L28.1248 21.7143V24.5314Z" fill="#F2F2F2"/>
<path d="M22.5 1.875H3.75C2.75544 1.875 1.80161 2.27009 1.09835 2.97335C0.395088 3.67661 0 4.63044 0 5.625L0 20.625C0.00068585 21.4564 0.277171 22.2641 0.786134 22.9215C1.2951 23.5789 2.00777 24.0489 2.8125 24.2578V8.90625C2.8125 7.78737 3.25697 6.71431 4.04814 5.92314C4.83931 5.13197 5.91237 4.6875 7.03125 4.6875H26.1328C25.9239 3.88277 25.4539 3.1701 24.7965 2.66113C24.1391 2.15217 23.3314 1.87569 22.5 1.875Z" fill="#F2F2F2"/>
</svg>
