<svg width="20" height="20" viewBox="0 0 15 15" fill="none" xmlns="http://www.w3.org/2000/svg">
<path d="M12.1544 2.34658C11.5054 1.69117 10.7333 1.17045 9.88249 0.814342C9.03166 0.458229 8.11884 0.273738 7.19649 0.271467C6.27414 0.269197 5.36043 0.449193 4.50785 0.801113C3.65528 1.15303 2.88064 1.66994 2.22843 2.32215C1.57623 2.97435 1.05932 3.74899 0.707401 4.60157C0.355481 5.45414 0.175485 6.36785 0.177756 7.29021C0.180026 8.21256 0.364517 9.12537 0.72063 9.9762C1.07674 10.827 1.59746 11.5991 2.25286 12.2481C2.90185 12.9035 3.67393 13.4242 4.52477 13.7803C5.3756 14.1365 6.28842 14.3209 7.21077 14.3232C8.13312 14.3255 9.04683 14.1455 9.89941 13.7936C10.752 13.4417 11.5266 12.9247 12.1788 12.2725C12.831 11.6203 13.3479 10.8457 13.6999 9.99312C14.0518 9.14054 14.2318 8.22683 14.2295 7.30448C14.2272 6.38213 14.0427 5.46932 13.6866 4.61848C13.3305 3.76765 12.8098 2.99556 12.1544 2.34658ZM1.20232 7.29734C1.2021 6.7662 1.27252 6.23739 1.41174 5.72481C1.64117 6.21867 1.97437 6.64533 2.20098 7.152C2.49385 7.80339 3.28027 7.62273 3.62754 8.19348C3.93573 8.70015 3.6066 9.34091 3.83727 9.87103C4.00481 10.2558 4.39989 10.3399 4.67245 10.6212C4.95095 10.905 4.94501 11.2938 4.98752 11.6639C5.03549 12.0987 5.11329 12.5297 5.22039 12.9539C5.22039 12.957 5.22039 12.9605 5.22289 12.9636C2.88394 12.1421 1.20232 9.9126 1.20232 7.29734ZM7.20363 13.2987C6.86848 13.2985 6.53391 13.2705 6.20341 13.2149C6.20685 13.1302 6.20841 13.0511 6.21685 12.9961C6.29281 12.4991 6.54161 12.0131 6.87731 11.6411C7.20894 11.2741 7.66342 11.026 7.94348 10.6096C8.21791 10.2033 8.30012 9.65629 8.18697 9.1815C8.02037 8.4801 7.06735 8.24599 6.55349 7.86559C6.25811 7.64679 5.99524 7.3086 5.60734 7.28109C5.42856 7.26859 5.27884 7.30703 5.10161 7.2614C4.93907 7.2192 4.81155 7.13168 4.63838 7.1545C4.31488 7.19701 4.11077 7.54271 3.76319 7.49582C3.43343 7.45175 3.09367 7.06573 3.01866 6.7516C2.92238 6.34776 3.24183 6.21679 3.58409 6.18085C3.72693 6.16585 3.88728 6.14959 4.0245 6.2021C4.20516 6.26899 4.29049 6.44591 4.45272 6.5353C4.75685 6.70221 4.81842 6.43559 4.77185 6.16553C4.70215 5.76107 4.62088 5.59635 4.98158 5.31785C5.23164 5.12593 5.44543 4.98715 5.40543 4.64239C5.38167 4.43984 5.27071 4.34826 5.37417 4.14666C5.45262 3.99319 5.66798 3.85472 5.80833 3.76313C6.17059 3.52683 7.36023 3.54434 6.87418 2.88294C6.73134 2.68884 6.46784 2.34189 6.21779 2.29438C5.90522 2.2353 5.76644 2.58413 5.54858 2.73791C5.32353 2.89701 4.88531 3.07767 4.65995 2.83168C4.35676 2.50067 4.86093 2.39221 4.97252 2.16091C5.02409 2.05307 4.97252 1.90335 4.88562 1.76239C4.99836 1.71488 5.11297 1.6708 5.22945 1.63017C5.30245 1.68409 5.38905 1.71656 5.4795 1.72394C5.68861 1.73769 5.88584 1.62454 6.06838 1.76707C6.27093 1.92336 6.41689 2.1209 6.6857 2.16966C6.94576 2.21686 7.22113 2.06526 7.28552 1.79896C7.32459 1.63705 7.28552 1.46607 7.24801 1.29885C8.41702 1.30557 9.55829 1.65567 10.53 2.30563C10.4675 2.28187 10.3928 2.28469 10.3006 2.32751C10.1108 2.41565 9.84202 2.64008 9.81983 2.86263C9.79451 3.11518 10.1671 3.15081 10.344 3.15081C10.6097 3.15081 10.8788 3.03204 10.7932 2.7251C10.756 2.59194 10.7053 2.45347 10.6237 2.36971C10.8199 2.50579 11.0077 2.65337 11.1864 2.81168C11.1836 2.81449 11.1807 2.81699 11.1779 2.82012C10.9979 3.00766 10.7888 3.15613 10.6656 3.3843C10.5787 3.54496 10.4809 3.62123 10.3049 3.6628C10.208 3.68562 10.0974 3.69406 10.0161 3.75907C9.78982 3.93724 9.9186 4.36545 10.133 4.49392C10.404 4.65614 10.806 4.57987 11.0104 4.34826C11.1701 4.16697 11.2642 3.85222 11.5515 3.85253C11.6779 3.85227 11.7994 3.90178 11.8897 3.99037C12.0084 4.11352 11.985 4.22855 12.0103 4.38233C12.055 4.65552 12.296 4.50736 12.4426 4.36952C12.5494 4.55969 12.6459 4.75554 12.7314 4.95621C12.5701 5.18845 12.442 5.44163 12.0541 5.17094C11.8218 5.00872 11.679 4.77335 11.3874 4.70021C11.1326 4.6377 10.8716 4.70271 10.62 4.74616C10.334 4.79586 9.99486 4.81774 9.77794 5.03435C9.56821 5.24314 9.45724 5.52258 9.23407 5.73231C8.80241 6.13865 8.62019 6.58219 8.89962 7.15669C9.16843 7.70899 9.73074 8.00875 10.3374 7.96936C10.9335 7.92967 11.5527 7.58397 11.5355 8.45009C11.5293 8.75672 11.5933 8.96896 11.6874 9.25371C11.7746 9.51626 11.7687 9.77069 11.7887 10.0417C11.8077 10.359 11.8573 10.6738 11.9368 10.9816C11.3766 11.7029 10.6589 12.2867 9.83857 12.6882C9.01824 13.0898 8.11698 13.2986 7.20363 13.2987Z" fill="white"/>
</svg>
