<svg width="16" height="16" viewBox="0 0 16 16" fill="none" xmlns="http://www.w3.org/2000/svg">
<path d="M14.9515 13.5525L12.1384 6.73852C12.0864 6.61269 11.9983 6.5051 11.8852 6.4294C11.772 6.3537 11.6389 6.31329 11.5028 6.31329C11.3666 6.31329 11.2336 6.3537 11.1204 6.4294C11.0073 6.5051 10.9191 6.61269 10.8672 6.73852L8.05407 13.5525C8.01909 13.6361 8.00096 13.7257 8.00073 13.8163C8.00051 13.9069 8.01818 13.9966 8.05274 14.0804C8.0873 14.1641 8.13806 14.2402 8.20211 14.3043C8.26617 14.3683 8.34224 14.4191 8.42598 14.4537C8.50971 14.4882 8.59945 14.5059 8.69004 14.5057C8.78063 14.5055 8.87028 14.4873 8.95385 14.4524C9.03741 14.4174 9.11324 14.3663 9.17699 14.3019C9.24073 14.2375 9.29113 14.1612 9.32528 14.0773L9.89822 12.6898H13.1074L13.6803 14.0773C13.7322 14.2032 13.8204 14.3108 13.9336 14.3866C14.0467 14.4623 14.1799 14.5027 14.3161 14.5027C14.4291 14.5026 14.5403 14.4747 14.6399 14.4214C14.7396 14.3682 14.8245 14.2911 14.8873 14.1972C14.9501 14.1033 14.9888 13.9953 14.9999 13.8828C15.0111 13.7704 14.9943 13.6569 14.9512 13.5525H14.9515ZM10.4662 11.3145L11.5029 8.80303L12.5397 11.3145H10.4662Z" fill="white"/>
<path d="M8.3716 10.7183C8.47844 10.5708 8.52234 10.3868 8.49369 10.2069C8.46503 10.027 8.36615 9.86581 8.21876 9.75874C8.21251 9.75405 7.74991 9.41085 7.0782 8.67319C8.31753 6.99532 9.01956 5.08647 9.30587 4.18815H10.3145C10.4969 4.18815 10.6718 4.1157 10.8008 3.98674C10.9297 3.85778 11.0022 3.68287 11.0022 3.5005C11.0022 3.31812 10.9297 3.14321 10.8008 3.01425C10.6718 2.8853 10.4969 2.81285 10.3145 2.81285H6.68874V2.18771C6.68874 2.00533 6.61629 1.83043 6.48733 1.70147C6.35837 1.57251 6.18346 1.50006 6.00109 1.50006C5.81871 1.50006 5.64381 1.57251 5.51485 1.70147C5.38589 1.83043 5.31344 2.00533 5.31344 2.18771V2.81285H1.68765C1.50527 2.81285 1.33037 2.8853 1.20141 3.01425C1.07245 3.14321 1 3.31812 1 3.5005C1 3.68287 1.07245 3.85778 1.20141 3.98674C1.33037 4.1157 1.50527 4.18815 1.68765 4.18815H7.85305C7.55549 5.03052 7.00756 6.36049 6.17175 7.57513C5.18997 6.27235 4.82521 5.42935 4.82239 5.42248C4.75052 5.25638 4.61606 5.12531 4.44818 5.0577C4.28029 4.99009 4.09252 4.99139 3.92559 5.06132C3.75866 5.13125 3.62603 5.26417 3.55647 5.43125C3.4869 5.59834 3.48601 5.78611 3.55399 5.95384C3.57212 5.99698 4.00878 7.02376 5.20623 8.57723C5.23498 8.61442 5.26343 8.65068 5.29187 8.68694C4.06535 10.0732 2.86197 10.9331 2.35842 11.2106C2.1983 11.2979 2.07944 11.4453 2.02797 11.6203C1.9765 11.7953 1.99665 11.9835 2.08399 12.1436C2.17132 12.3037 2.31868 12.4226 2.49366 12.4741C2.66863 12.5255 2.85688 12.5054 3.017 12.4181C3.08452 12.3812 4.53608 11.5776 6.19363 9.74279C6.89753 10.4955 7.38139 10.8505 7.41046 10.8712C7.4836 10.9243 7.56649 10.9625 7.65441 10.9835C7.74232 11.0046 7.83352 11.0081 7.92279 10.9939C8.01206 10.9796 8.09765 10.948 8.17466 10.9006C8.25167 10.8533 8.3186 10.7912 8.3716 10.718V10.7183Z" fill="white"/>
</svg>
