<svg width="40" height="40" viewBox="0 0 40 40" fill="none" xmlns="http://www.w3.org/2000/svg">
<path d="M20.0006 3.74805C11.0405 3.74805 3.75061 11.0379 3.75061 19.998C3.75061 28.9582 11.0405 36.2481 20.0006 36.2481C28.9608 36.2481 36.2506 28.9582 36.2506 19.998C36.2506 11.0379 28.9608 3.74805 20.0006 3.74805ZM20.1569 11.248C21.2694 11.248 22.3569 11.5779 23.2819 12.196C24.207 12.8141 24.9279 13.6926 25.3537 14.7205C25.7794 15.7483 25.8908 16.8793 25.6738 17.9704C25.4567 19.0616 24.921 20.0639 24.1343 20.8505C23.3477 21.6372 22.3454 22.1729 21.2542 22.39C20.1631 22.607 19.0321 22.4956 18.0043 22.0699C16.9764 21.6441 16.0979 20.9232 15.4798 19.9981C14.8618 19.0731 14.5319 17.9856 14.5319 16.873C14.5319 15.3812 15.1245 13.9505 16.1794 12.8956C17.2343 11.8407 18.665 11.248 20.1569 11.248V11.248ZM20.0006 33.7481C18.1041 33.7488 16.228 33.3563 14.4909 32.5952C12.7538 31.8341 11.1935 30.721 9.90842 29.3262C10.599 25.7496 16.8022 24.9981 20.0006 24.9981C23.1991 24.9981 29.4022 25.7496 30.0928 29.3254C28.8079 30.7204 27.2476 31.8338 25.5105 32.595C23.7734 33.3563 21.8972 33.7489 20.0006 33.7481V33.7481Z" fill="white"/>
</svg>
