<svg width="30" height="30" viewBox="0 0 30 30" fill="none" xmlns="http://www.w3.org/2000/svg">
<path d="M5.67464 16.7941C5.59749 16.7374 5.50484 16.7057 5.40916 16.7033C5.31347 16.7008 5.21933 16.7277 5.13938 16.7804C5.05943 16.833 4.99752 16.9089 4.96196 16.9977C4.9264 17.0866 4.91889 17.1842 4.94046 17.2775C5.98049 21.8718 10.0955 25.3124 14.9998 25.3124C16.0413 25.3128 17.0768 25.1547 18.0707 24.8437C18.1625 24.8154 18.2433 24.7596 18.3023 24.6839C18.3613 24.6082 18.3957 24.5162 18.4007 24.4204C18.4058 24.3245 18.3813 24.2294 18.3305 24.148C18.2798 24.0665 18.2053 24.0025 18.117 23.9648C15.9208 22.9968 13.7793 21.909 11.7022 20.7064C9.62343 19.5127 7.61127 18.2067 5.67464 16.7941Z" fill="#F2F2F2"/>
<path d="M28.8705 19.8932C28.625 19.5662 28.3367 19.2229 28.0091 18.866C27.9021 18.7481 27.7665 18.6598 27.6154 18.6095C27.4644 18.5592 27.3029 18.5486 27.1465 18.5788C26.9902 18.609 26.8442 18.6789 26.7227 18.7819C26.6013 18.8848 26.5083 19.0173 26.4529 19.1666C26.4529 19.176 26.4464 19.1848 26.4429 19.1941C26.3845 19.3529 26.3708 19.5246 26.4034 19.6905C26.4359 19.8565 26.5135 20.0103 26.6275 20.1352C27.9599 21.6 28.1756 22.3916 28.1205 22.5586C28.0033 22.6893 27.1214 22.9623 24.7132 22.3518C24.3683 22.2643 23.991 22.1576 23.5812 22.0318C23.3172 21.9506 23.0478 21.8629 22.7732 21.7688C23.2046 21.274 23.5879 20.7394 23.9181 20.1721C23.9281 20.1551 23.9386 20.1381 23.9486 20.1205C24.8431 18.5623 25.3134 16.7967 25.3127 15C25.3129 14.6281 25.2933 14.2565 25.2541 13.8867C24.6933 8.72051 20.3088 4.6875 15.0002 4.6875C12.7477 4.68623 10.5573 5.4251 8.76578 6.79043C7.67997 7.61686 6.7675 8.64899 6.08043 9.82793C6.07106 9.84492 6.06051 9.86192 6.05055 9.87891C5.72401 10.4478 5.45266 11.0466 5.2402 11.6672C5.02184 11.477 4.8111 11.2881 4.60797 11.1006C4.29215 10.8076 4.01207 10.5363 3.76305 10.2803C2.03043 8.50723 1.82418 7.60782 1.87867 7.44141C1.99586 7.31074 2.78922 7.09746 4.7275 7.51817C4.89322 7.55461 5.06575 7.54487 5.22631 7.49C5.38687 7.43514 5.52929 7.33726 5.63805 7.20703L5.65914 7.18125C5.76024 7.05976 5.82842 6.91434 5.85714 6.75892C5.88586 6.6035 5.87415 6.44331 5.82315 6.29372C5.77215 6.14412 5.68356 6.01015 5.56588 5.90464C5.4482 5.79914 5.30539 5.72564 5.15114 5.69121C4.69109 5.58697 4.22603 5.50621 3.75778 5.44922C1.95778 5.24238 0.779455 5.59688 0.255041 6.50391C0.0651972 6.83086 -0.117029 7.38809 0.095666 8.17969C0.410314 9.35508 1.5318 10.7813 3.1191 12.2754C3.62477 12.7518 4.17731 13.2346 4.76676 13.7191C5.19567 14.0707 5.64567 14.4258 6.10856 14.7785C6.41754 15.0129 6.73297 15.2473 7.05485 15.4816C7.37672 15.716 7.70289 15.9461 8.03336 16.1719C9.52223 17.2037 11.0955 18.1945 12.6382 19.0834C13.1984 19.4061 13.7578 19.7186 14.3164 20.0209C14.875 20.3232 15.4291 20.6125 15.9787 20.8887C17.2619 21.5332 18.5187 22.1145 19.7205 22.6131C20.2357 22.8272 20.7398 23.0256 21.2328 23.2084C21.9295 23.4674 22.6021 23.6953 23.2431 23.8875L23.3076 23.9068C24.8152 24.3557 26.0861 24.5918 27.0857 24.61H27.1877C28.4556 24.61 29.3146 24.2361 29.7412 23.4967C30.2738 22.5815 29.9802 21.3686 28.8705 19.8932Z" fill="#F2F2F2"/>
</svg>
