<svg width="30" height="30" viewBox="0 0 30 30" fill="none" xmlns="http://www.w3.org/2000/svg">
<path d="M24.9607 15.5859C24.3497 15.5866 23.7519 15.764 23.2394 16.0967C22.7268 16.4293 22.3214 16.9031 22.072 17.4609H20.6166L19.0345 12.7148C18.9471 12.4542 18.7786 12.2284 18.5536 12.0703C18.3287 11.9122 18.0591 11.8302 17.7842 11.8362C17.5094 11.8422 17.2436 11.936 17.0258 12.1038C16.808 12.2715 16.6496 12.5045 16.5736 12.7687L14.3939 20.3977L11.5814 3.88945C11.5315 3.59847 11.3832 3.33344 11.1613 3.13867C10.9394 2.9439 10.6574 2.83119 10.3624 2.81939C10.0674 2.80759 9.77732 2.89741 9.5406 3.07384C9.30388 3.25026 9.13489 3.5026 9.06188 3.78867L5.55563 17.4609H1.87477V20.0391H6.56227C6.84969 20.039 7.12885 19.943 7.3554 19.7661C7.58195 19.5892 7.7429 19.3417 7.81266 19.0629L10.0597 10.0781L12.7908 26.1105C12.8385 26.3996 12.9833 26.6637 13.2012 26.8594C13.4191 27.0552 13.6972 27.1709 13.9896 27.1875C14.0142 27.1875 14.0377 27.1875 14.0623 27.1875C14.3427 27.1873 14.6154 27.0957 14.839 26.9265C15.0627 26.7573 15.2251 26.5198 15.3015 26.25L17.9072 17.4832L18.4644 19.1602C18.5504 19.4163 18.7147 19.639 18.9342 19.7967C19.1536 19.9545 19.417 20.0392 19.6873 20.0391H22.072C22.304 20.5591 22.672 21.0068 23.1372 21.3351C23.6025 21.6635 24.1476 21.8601 24.7153 21.9045C25.283 21.9488 25.8521 21.8391 26.3626 21.587C26.8732 21.3348 27.3062 20.9496 27.6161 20.4719C27.926 19.9942 28.1012 19.4418 28.1233 18.8728C28.1454 18.3038 28.0135 17.7394 27.7416 17.2391C27.4698 16.7388 27.0679 16.3212 26.5785 16.0302C26.089 15.7393 25.5301 15.5858 24.9607 15.5859Z" fill="#F2F2F2"/>
</svg>
