<svg width="17" height="17" viewBox="0 0 17 17" fill="none" xmlns="http://www.w3.org/2000/svg">
<g clip-path="url(#clip0_5_833)">
<path d="M9.17084 14.6371H7.16893C7.0362 14.6371 6.9089 14.6898 6.81504 14.7837C6.72119 14.8775 6.66846 15.0048 6.66846 15.1376C6.66846 15.2703 6.72119 15.3976 6.81504 15.4915C6.9089 15.5853 7.0362 15.638 7.16893 15.638H9.17084C9.30358 15.638 9.43087 15.5853 9.52473 15.4915C9.61859 15.3976 9.67132 15.2703 9.67132 15.1376C9.67132 15.0048 9.61859 14.8775 9.52473 14.7837C9.43087 14.6898 9.30358 14.6371 9.17084 14.6371Z" fill="white"/>
<path d="M9.66947 13.1376H6.66839C6.53574 13.1376 6.40851 13.1903 6.31471 13.2841C6.22091 13.3779 6.16821 13.5051 6.16821 13.6378C6.16821 13.7704 6.22091 13.8976 6.31471 13.9914C6.40851 14.0852 6.53574 14.1379 6.66839 14.1379H9.66947C9.80213 14.1379 9.92935 14.0852 10.0232 13.9914C10.117 13.8976 10.1697 13.7704 10.1697 13.6378C10.1697 13.5051 10.117 13.3779 10.0232 13.2841C9.92935 13.1903 9.80213 13.1376 9.66947 13.1376Z" fill="white"/>
<path d="M11.715 2.0941C10.7751 1.15296 9.51604 0.634719 8.1698 0.634719C7.51261 0.633152 6.86159 0.76144 6.25412 1.01221C5.64665 1.26299 5.09471 1.6313 4.63001 2.09601C4.1653 2.56072 3.79698 3.11265 3.54621 3.72012C3.29544 4.32759 3.16715 4.97861 3.16872 5.63581C3.16872 7.093 3.72727 8.45611 4.7003 9.37537L4.83658 9.50321C5.39951 10.0296 6.16937 10.7507 6.16937 11.3871V12.1372C6.16937 12.2699 6.22206 12.3971 6.31585 12.4909C6.40964 12.5846 6.53684 12.6373 6.66948 12.6373H7.41964C7.48596 12.6373 7.54956 12.611 7.59646 12.5641C7.64335 12.5172 7.6697 12.4536 7.6697 12.3873V8.7246C7.66971 8.67404 7.6544 8.62465 7.62577 8.58297C7.59714 8.54128 7.55655 8.50926 7.50935 8.49112C7.22056 8.3733 6.94622 8.22281 6.69167 8.04258C6.63447 8.00605 6.5853 7.95826 6.54716 7.90212C6.50902 7.84598 6.4827 7.78266 6.46982 7.71603C6.45693 7.64939 6.45775 7.58083 6.47221 7.51452C6.48667 7.4482 6.51448 7.38553 6.55394 7.33031C6.5934 7.27509 6.64369 7.22848 6.70174 7.19332C6.75979 7.15816 6.8244 7.13518 6.89161 7.12579C6.95883 7.11639 7.02726 7.12078 7.09273 7.13868C7.15819 7.15658 7.21933 7.18762 7.27242 7.2299C7.50372 7.39369 7.94913 7.63624 8.1698 7.63624C8.39048 7.63624 8.83589 7.39306 9.06781 7.2299C9.1758 7.16201 9.30565 7.13795 9.43079 7.16264C9.55594 7.18733 9.66692 7.25891 9.74103 7.36273C9.81514 7.46655 9.84678 7.59476 9.82947 7.72114C9.81217 7.84752 9.74723 7.9625 9.64794 8.04258C9.39335 8.22248 9.119 8.37266 8.83026 8.49018C8.78306 8.50832 8.74247 8.54034 8.71384 8.58203C8.68521 8.62371 8.6699 8.6731 8.66991 8.72367V12.3873C8.66991 12.4536 8.69626 12.5172 8.74315 12.5641C8.79005 12.611 8.85365 12.6373 8.91997 12.6373H9.67013C9.80277 12.6373 9.92997 12.5846 10.0238 12.4909C10.1176 12.3971 10.1702 12.2699 10.1702 12.1372V11.3871C10.1702 10.7657 10.9317 10.0452 11.4877 9.51884L11.6412 9.37318C12.642 8.41766 13.1709 7.12394 13.1709 5.63581C13.1742 4.97855 13.0472 4.32716 12.7973 3.71926C12.5474 3.11135 12.1796 2.559 11.715 2.0941Z" fill="white"/>
</g>
<defs>
<clipPath id="clip0_5_833">
<rect width="16.0035" height="16.0035" fill="white" transform="translate(0.16748 0.134399)"/>
</clipPath>
</defs>
</svg>
