<svg width="15" height="15" viewBox="0 0 15 15" fill="none" xmlns="http://www.w3.org/2000/svg">
<path d="M4.60741 12.0032C4.48645 11.9882 4.36417 12.0179 4.26354 12.0867C4.06378 12.2233 3.86308 12.3583 3.66051 12.4899C3.25068 12.7563 2.7605 12.2886 3.00402 11.8647L3.38385 11.2082C3.43815 11.1288 3.46839 11.0354 3.47093 10.9392C3.47348 10.843 3.44823 10.7481 3.3982 10.6659C3.34818 10.5837 3.2755 10.5177 3.1889 10.4758C3.10229 10.4338 3.00543 10.4178 2.90993 10.4295C2.48837 10.4828 2.09652 10.6748 1.79609 10.9753C1.68167 11.0901 1.33373 11.4383 1.14648 12.7654C1.09318 13.1465 1.05958 13.5302 1.04582 13.9148C1.04411 13.9816 1.05578 14.048 1.08015 14.1102C1.10452 14.1724 1.14109 14.229 1.18771 14.2768C1.23433 14.3246 1.29005 14.3626 1.35158 14.3886C1.41312 14.4145 1.47922 14.4279 1.546 14.4278H1.5585C1.94343 14.4142 2.32741 14.3808 2.70892 14.3278C4.03658 14.1402 4.38483 13.792 4.49925 13.6776C4.80114 13.377 4.99269 12.9833 5.04288 12.5603C5.05896 12.4287 5.02212 12.2961 4.94046 12.1916C4.8588 12.0871 4.73901 12.0194 4.60741 12.0032Z" fill="#F2F2F2"/>
<path d="M14.4684 1.48923C14.4683 1.4883 14.4683 1.48735 14.4684 1.48642C14.442 1.37055 14.3837 1.26438 14.3001 1.17988C14.2166 1.09538 14.1111 1.03591 13.9955 1.00819C13.064 0.780953 11.5987 1.02319 9.97493 1.67333C8.33832 2.32973 6.80486 3.29869 5.76839 4.33704C5.43617 4.66749 5.12753 5.02083 4.84475 5.39446C4.14678 5.3632 3.53196 5.4626 3.01404 5.68858C1.20927 6.48282 0.693846 8.51545 0.556628 9.35C0.536773 9.46858 0.544547 9.59015 0.579347 9.70523C0.614147 9.82031 0.675033 9.92581 0.757268 10.0135C0.839503 10.1012 0.940867 10.1688 1.05347 10.2109C1.16608 10.2531 1.28689 10.2686 1.4065 10.2564H1.41056L3.421 10.037C3.4235 10.0627 3.42631 10.0861 3.4285 10.1077C3.45432 10.3526 3.56358 10.5813 3.73795 10.7553L4.7191 11.7371C4.89284 11.9117 5.12145 12.0211 5.36642 12.0468L5.43363 12.054L5.21483 14.062C5.21483 14.062 5.21483 14.0645 5.21483 14.066C5.20365 14.1742 5.21515 14.2835 5.24861 14.3869C5.28207 14.4903 5.33675 14.5857 5.40915 14.6668C5.48155 14.7479 5.57007 14.813 5.66907 14.8579C5.76806 14.9029 5.87535 14.9267 5.98406 14.9278C6.02752 14.9278 6.0709 14.9243 6.11377 14.9172C6.95302 14.7821 8.98471 14.2729 9.77676 12.4585C10.0009 11.944 10.1 11.3317 10.0721 10.635C10.4474 10.3528 10.8021 10.0441 11.1333 9.71133C12.1782 8.67173 13.1503 7.15077 13.7998 5.53792C14.4465 3.93258 14.69 2.45632 14.4684 1.48923ZM11.1221 6.95542C10.8652 7.21252 10.5379 7.38766 10.1815 7.45869C9.82514 7.52973 9.45569 7.49346 9.11991 7.35448C8.78414 7.2155 8.49713 6.98006 8.2952 6.67793C8.09327 6.3758 7.98548 6.02057 7.98548 5.65717C7.98548 5.29377 8.09327 4.93854 8.2952 4.63641C8.49713 4.33428 8.78414 4.09883 9.11991 3.95985C9.45569 3.82088 9.82514 3.78461 10.1815 3.85564C10.5379 3.92668 10.8652 4.10182 11.1221 4.35892C11.2942 4.52847 11.4309 4.73057 11.5242 4.95345C11.6175 5.17633 11.6656 5.41554 11.6656 5.65717C11.6656 5.89879 11.6175 6.13801 11.5242 6.36089C11.4309 6.58377 11.2942 6.78586 11.1221 6.95542V6.95542Z" fill="#F2F2F2"/>
</svg>
