<svg width="40" height="40" viewBox="0 0 40 40" fill="none" xmlns="http://www.w3.org/2000/svg">
<path d="M36.2509 20C36.2509 11.0258 28.9751 3.75 20.0009 3.75C11.0266 3.75 3.75085 11.0258 3.75085 20C3.75085 28.9742 11.0266 36.25 20.0009 36.25C28.9751 36.25 36.2509 28.9742 36.2509 20ZM19.6376 27.1375C19.521 27.0219 19.4284 26.8844 19.3649 26.733C19.3015 26.5816 19.2685 26.4192 19.2678 26.255C19.2672 26.0908 19.2989 25.9281 19.3611 25.7762C19.4233 25.6243 19.5149 25.4861 19.6305 25.3695L23.718 21.25H13.2821C12.9506 21.25 12.6326 21.1183 12.3982 20.8839C12.1638 20.6495 12.0321 20.3315 12.0321 20C12.0321 19.6685 12.1638 19.3505 12.3982 19.1161C12.6326 18.8817 12.9506 18.75 13.2821 18.75H23.718L19.6305 14.6305C19.5149 14.5138 19.4234 14.3755 19.3612 14.2235C19.299 14.0715 19.2674 13.9087 19.2681 13.7445C19.2689 13.5802 19.3019 13.4177 19.3654 13.2663C19.429 13.1148 19.5217 12.9773 19.6384 12.8617C19.755 12.7461 19.8933 12.6546 20.0453 12.5924C20.1973 12.5302 20.3601 12.4986 20.5244 12.4993C20.8561 12.5008 21.1736 12.6339 21.4071 12.8695L27.6095 19.1195C27.8418 19.3537 27.9722 19.6702 27.9722 20C27.9722 20.3299 27.8418 20.6463 27.6095 20.8805L21.4071 27.1305C21.2915 27.2473 21.1539 27.3401 21.0024 27.4037C20.8508 27.4673 20.6882 27.5003 20.5238 27.501C20.3594 27.5016 20.1966 27.4699 20.0445 27.4075C19.8924 27.3451 19.7541 27.2534 19.6376 27.1375Z" fill="#F2F2F2"/>
</svg>
