<svg width="40" height="40" viewBox="0 0 40 40" fill="none" xmlns="http://www.w3.org/2000/svg">
<g clip-path="url(#clip0_245_64)">
<path d="M19.9998 3.74805C11.0396 3.74805 3.74976 11.0379 3.74976 19.998C3.74976 28.9582 11.0396 36.2481 19.9998 36.2481C28.9599 36.2481 36.2498 28.9582 36.2498 19.998C36.2498 11.0379 28.9599 3.74805 19.9998 3.74805ZM26.2498 24.2481C26.2493 24.7784 26.0385 25.2868 25.6635 25.6618C25.2885 26.0368 24.7801 26.2476 24.2498 26.2481H15.7498C15.2195 26.2476 14.711 26.0368 14.336 25.6618C13.961 25.2868 13.7502 24.7784 13.7498 24.2481V15.748C13.7502 15.2177 13.961 14.7093 14.336 14.3343C14.711 13.9593 15.2195 13.7485 15.7498 13.748H24.2498C24.7801 13.7485 25.2885 13.9593 25.6635 14.3343C26.0385 14.7093 26.2493 15.2177 26.2498 15.748V24.2481Z" fill="#F2F2F2"/>
</g>
<defs>
<clipPath id="clip0_245_64">
<rect width="40" height="40" fill="white"/>
</clipPath>
</defs>
</svg>
