<svg width="513" height="343" viewBox="0 0 513 343" fill="none" xmlns="http://www.w3.org/2000/svg">
<g clip-path="url(#clip0_403_2)">
<path d="M0 0.961914H513V342.955H0V0.961914Z" fill="#D80027"/>
<path d="M0 228H513V343H0V228Z" fill="#6DA544"/>
<path d="M0 0.961914H513V105.681H0V0.961914Z" fill="#338AF3"/>
<path d="M0 126.747H513V216.578H0V126.747Z" fill="white"/>
<path d="M0 1H513V118H0V1Z" fill="#338AF3"/>
<path d="M38.3379 60.4562C38.3379 44.441 49.5939 31.0599 64.6252 27.7785C62.2704 27.2626 59.8669 27.0016 57.4562 27C38.9782 27 24 41.9782 24 60.4562C24 78.9342 38.9782 93.9124 57.4562 93.9124C59.919 93.9124 62.3157 93.6389 64.6252 93.1339C49.5939 89.8525 38.3379 76.4714 38.3379 60.4562ZM84.3977 75.6629L86.6632 82.6335H93.9924L88.0629 86.9429L90.3283 93.9124L84.3977 89.604L78.4682 93.9124L80.7336 86.9429L74.804 82.6335H82.1333L84.3977 75.6629ZM107.791 75.6629L110.056 82.6335H117.385L111.455 86.9429L113.721 93.9124L107.791 89.604L101.862 93.9124L104.126 86.9429L98.1976 82.6335H105.526L107.791 75.6629ZM131.184 75.6629L133.448 82.6335H140.778L134.849 86.9429L137.113 93.9124L131.184 89.604L125.254 93.9124L127.519 86.9429L121.589 82.6335H128.919L131.184 75.6629ZM154.577 75.6629L156.843 82.6335H164.172L158.242 86.9429L160.507 93.9124L154.577 89.604L148.647 93.9124L150.913 86.9429L144.983 82.6335H152.311L154.577 75.6629ZM177.97 75.6629L180.235 82.6335H187.564L181.634 86.9429L183.9 93.9124L177.97 89.604L172.041 93.9124L174.305 86.9429L168.376 82.6335H175.705L177.97 75.6629ZM107.791 51.3314L110.056 58.301H117.385L111.455 62.6094L113.721 69.58L107.791 65.2726L101.862 69.58L104.126 62.6094L98.1976 58.301H105.526L107.791 51.3314ZM131.184 51.3314L133.448 58.301H140.778L134.849 62.6094L137.113 69.58L131.184 65.2726L125.254 69.58L127.519 62.6094L121.589 58.301H128.919L131.184 51.3314ZM154.577 51.3314L156.843 58.301H164.172L158.242 62.6094L160.507 69.58L154.577 65.2726L148.647 69.58L150.913 62.6094L144.983 58.301H152.311L154.577 51.3314ZM177.97 51.3314L180.235 58.301H187.564L181.634 62.6094L183.9 69.58L177.97 65.2726L172.041 69.58L174.305 62.6094L168.376 58.301H175.705L177.97 51.3314ZM131.184 27L133.448 33.9696H140.778L134.849 38.278L137.113 45.2486L131.184 40.9402L125.254 45.2486L127.519 38.278L121.589 33.9696H128.919L131.184 27ZM154.577 27L156.843 33.9696H164.172L158.242 38.278L160.507 45.2486L154.577 40.9402L148.647 45.2486L150.913 38.278L144.983 33.9696H152.311L154.577 27ZM177.97 27L180.235 33.9696H187.564L181.634 38.278L183.9 45.2486L177.97 40.9402L172.041 45.2486L174.305 38.278L168.376 33.9696H175.705L177.97 27Z" fill="white"/>
</g>
<defs>
<clipPath id="clip0_403_2">
<rect width="513" height="342" fill="white" transform="translate(0 0.958008)"/>
</clipPath>
</defs>
</svg>
